# xmcd CD database file
#
# Track frame offsets:
#	150
#	10951
#	23623
#	45511
#	59196
#	77280
#	92870
#	104074
#	116330
#	128472
#	147661
#	163966
#	182254
#	202697
#	221835
#	232976
#	244611
#	257001
#	270367
#	280764
#	294220
#	316509
#
# Disc length: 4423 seconds
#
# Revision: 0
# Processed by: cddbd v1.5.1PL0 Copyright (c) Steve Scherf et al.
# Submitted via: CDex 1.51
#
DISCID=25114516
DTITLE=Various Artist - The Blues is alright
DYEAR=2004
DGENRE=Blues
TTITLE0=Little Junior Parker - Mystery train
TTITLE1=Jimmy Reed - Shame shame shame
TTITLE2=Luther Allison - Sweet home Chicago
TTITLE3=B.B. King - Three o'clock blues
TTITLE4=John Mayall - I ain't got you
TTITLE5=Magic Sam - Easy baby
TTITLE6=John Lee Hooker - Boom boom
TTITLE7=Yardbirds - Good morning little schoolgirl
TTITLE8=Albert Collins - Too many dirty dishes
TTITLE9=Little Milton - The blues is alright
TTITLE10=ZZ Hill - Someone else is steppin' in
TTITLE11=Bobby Bland - Mightnight run
TTITLE12=Mike Griffin - Working is the curse...
TTITLE13=Bobby Rush - One monkey don't stop no show
TTITLE14=Johnny Winter - Gangster of love
TTITLE15=Little Richard - Cherry red
TTITLE16=Bobby Marchan - Get down with it
TTITLE17=Jimmy Witherspoon - Ain't nobody's business
TTITLE18=Johnny Adams - I won't cry
TTITLE19=Robert Parker - Rockin' pneumonia
TTITLE20=Jimi Hendrix - Red house
TTITLE21=Ona Watson - Thake this job and shove it
EXTD=YEAR: 2004
EXTT0=
EXTT1=
EXTT2=
EXTT3=
EXTT4=
EXTT5=
EXTT6=
EXTT7=
EXTT8=
EXTT9=
EXTT10=
EXTT11=
EXTT12=
EXTT13=
EXTT14=
EXTT15=
EXTT16=
EXTT17=
EXTT18=
EXTT19=
EXTT20=
EXTT21=
PLAYORDER=
